<?xml version="1.0" encoding="UTF-8"?>
<svg id="b" data-name="Calque 2" xmlns="http://www.w3.org/2000/svg" width="58.13777mm" height="58.13848mm" viewBox="0 0 164.79999 164.80201">
  <g id="c" data-name="Calque 2">
    <g>
      <path d="M164.79999,124.12832v-41.72928c0-1.10291-.89409-1.997-1.997-1.997h-56.30598c-1.10291,0-1.997-.89409-1.997-1.997v-36.20161c0-.31002-.07218-.61579-.21083-.89309L84.18641,1.10475c-.73598-1.47197-2.83659-1.47187-3.57243.00017l-18.99206,37.99303c-.33824.67664-1.02978,1.10408-1.78626,1.10408h-15.16157c-.75634,0-1.44778-.42729-1.78609-1.10375L23.88628,1.10375c-.73604-1.47174-2.83636-1.47164-3.57226.00017L.21083,41.31034c-.13865.27729-.21083.58306-.21083.89309v102.4986h.01001v18.10297c0,1.10291.89409,1.997,1.997,1.997h100.506c1.10291,0,1.997-.89409,1.997-1.997v-20.10297h-.01001v-3.43054c0-2.10383,2.83345-2.77749,3.78032-.89878l2.63675,5.23171c.73793,1.46416,2.8283,1.46433,3.56648.0003l6.6233-13.13612c.7381-1.4639,2.82822-1.4639,3.56633,0l6.62411,13.13772c.73802,1.46373,2.82784,1.46394,3.56615.00035l6.63273-13.14841c.73839-1.46375,2.82852-1.46334,3.56633.0007l6.6219,13.13983c.7384,1.46522,2.83072,1.46413,3.56761-.00185l9.33525-18.57174c.13988-.27828.21273-.58542.21273-.89688ZM5.997,124.60199h32.21602c1.10291,0,1.997.89409,1.997,1.997v12.10603c0,1.10291-.89409,1.997-1.997,1.997H5.997c-1.10291,0-1.997-.89409-1.997-1.997v-12.10603c0-1.10291.89409-1.997,1.997-1.997ZM98.51301,160.80201H6.00701c-1.10291,0-1.997-.89409-1.997-1.997v-12.10597c0-1.10291.89409-1.997,1.997-1.997h92.506c1.10291,0,1.997.89409,1.997,1.997v12.10597c0,1.10291-.89409,1.997-1.997,1.997ZM44.21002,138.70503v-12.10603c0-1.10291.89409-1.997,1.997-1.997h12.10597c1.10291,0,1.997.89409,1.997,1.997v12.10603c0,1.10291-.89409,1.997-1.997,1.997h-12.10597c-1.10291,0-1.997-.89409-1.997-1.997ZM64.31,138.70503v-12.10603c0-1.10291.89409-1.997,1.997-1.997h32.196c1.10291,0,1.997.89409,1.997,1.997v12.10603c0,1.10291-.89409,1.997-1.997,1.997h-32.196c-1.10291,0-1.997-.89409-1.997-1.997ZM110.91569,134.72445l-3.64479-7.22611c-.66994-1.32821.29543-2.89635,1.78303-2.89635h7.28429c1.48709,0,2.45249,1.56716,1.78355,2.89531l-3.6395,7.22611c-.73758,1.46445-2.82814,1.46506-3.56658.00104ZM131.29776,134.72341l-3.6395-7.22611c-.66893-1.32814.29647-2.89531,1.78355-2.89531h7.28429c1.4876,0,2.45297,1.56814,1.78303,2.89635l-3.64479,7.22611c-.73844,1.46402-2.829,1.46341-3.56658-.00104ZM151.68777,134.72339l-3.63949-7.22609c-.66893-1.32814.29647-2.89531,1.78355-2.89531h7.28424c1.48759,0,2.45296,1.56814,1.78303,2.89634l-3.64475,7.22609c-.73844,1.46403-2.829,1.46342-3.56659-.00104ZM158.80299,120.60199H5.997c-1.10291,0-1.997-.89409-1.997-1.997V43.14343c0-.31002.07218-.61579.21083-.89309L20.31404,10.04386c.7359-1.4718,2.83619-1.47191,3.57225-.00019l16.53173,33.05464c.33831.67645,1.02975,1.10372,1.78608,1.10372h20.10152c.75648,0,1.44803-.42745,1.78627-1.1041l16.52211-33.05293c.73583-1.47205,2.83645-1.47216,3.57244-.00019l16.10274,32.20553c.13865.27729.21083.58306.21083.89309v39.26161c0,1.10291.89409,1.997,1.997,1.997h36.20601c1.10291,0,1.997.89409,1.997,1.997v16.10597c0,1.10291.89409,1.997,1.997,1.997h16.10597c1.10291,0,1.997.89409,1.997,1.997v12.10597c0,1.10291-.89409,1.997-1.997,1.997ZM158.80299,100.50202h-12.10597c-1.10291,0-1.997-.89409-1.997-1.997v-12.10597c0-1.10291.89409-1.997,1.997-1.997h12.10597c1.10291,0,1.997.89409,1.997,1.997v12.10597c0,1.10291-.89409,1.997-1.997,1.997Z" fill="#1d1d1b"/>
      <path d="M36.39208,73.76409l5.81332,5.81332c.78085.78085.77973,2.04722-.0025,2.82669l-.00082.00082c-.78028.77752-2.04279.7764-2.82169-.0025l-5.80907-5.80912c-.77956-.77956-2.04336-.77993-2.82337-.00082l-5.81832,5.81158c-.77903.77813-2.0409.77888-2.82086.00168l-.00164-.00164c-.78224-.77947-.78336-2.04583-.0025-2.82669l5.81332-5.81332c.77988-.77988.77988-2.04432,0-2.82419l-5.8133-5.81326c-.78086-.78085-.77974-2.04722.0025-2.82669l.00083-.00082c.78028-.77752,2.04278-.7764,2.82168.00249l5.81751,5.81747c.7802.78019,2.04526.77982,2.825-.00082l5.80826-5.815c.77877-.77967,2.0419-.78116,2.8225-.00332h0c.78224.77948.78336,2.04584.0025,2.82669l-5.8133,5.81326c-.77988.77988-.77988,2.04431,0,2.82419Z" fill="#1d1d1b"/>
      <path d="M73.92568,84.3025c-7.87045.9989-14.51833-5.65057-13.51791-13.52119.68197-5.3653,5.01451-9.69749,10.37984-10.37922,7.87217-1.00026,14.52178,5.65138,13.51934,13.52316-.6832,5.36493-5.01605,9.69631-10.38127,10.37725ZM73.93653,64.4533c-5.66247-1.0828-10.56035,3.81503-9.47764,9.47749.60506,3.16441,3.1571,5.71627,6.32164,6.32065,5.66061,1.08108,10.55647-3.81421,9.47627-9.47545-.60388-3.16487-3.15564-5.71753-6.32027-6.32268Z" fill="#1d1d1b"/>
      <path d="M92.58336,44.20203h-20.10983c-1.48454,0-2.45008-1.56228-1.78617-2.89009l10.05492-20.10983c.73594-1.47189,2.8364-1.47189,3.57235,0l10.05492,20.10983c.6639,1.32781-.30164,2.89009-1.78617,2.89009ZM78.94608,40.20203h7.16473c1.48451,0,2.45005-1.56223,1.7862-2.89004l-3.58236-7.16524c-.73593-1.47196-2.83647-1.47196-3.5724,0l-3.58236,7.16524c-.66386,1.32781.30169,2.89004,1.7862,2.89004Z" fill="#1d1d1b"/>
      <path d="M32.00317,44.20203H11.89247c-1.48454,0-2.45008-1.56228-1.78617-2.89009l10.05498-20.10996c.73593-1.47186,2.83634-1.47189,3.57232-.00005l10.05572,20.10996c.66395,1.32781-.30159,2.89014-1.78615,2.89014ZM18.36502,40.20203h7.1655c1.48456,0,2.4501-1.56233,1.78615-2.89014l-3.583-7.1655c-.73599-1.47187-2.83644-1.47181-3.57235.0001l-3.58249,7.1655c-.66386,1.32781.30169,2.89004,1.7862,2.89004Z" fill="#1d1d1b"/>
    </g>
  </g>
</svg>